<svg xmlns="http://www.w3.org/2000/svg" width="256" height="256" viewBox="0 0 256 256" version="1.1">
	<path d="M 188.768 43.427 L 160.037 54.777 128.953 43.888 C 111.857 37.900, 97.112 33, 96.185 33 C 95.259 33, 80.859 37.547, 64.186 43.105 C 37.361 52.046, 33.763 53.493, 32.935 55.670 C 32.383 57.123, 32 91.254, 32 139.065 C 32 219.339, 32.017 220.017, 34.051 222.051 C 36.535 224.535, 33.594 225.401, 68.259 211.977 L 96.019 201.228 127.144 212.114 C 144.262 218.101, 159.004 223, 159.903 223 C 163.408 223, 221.550 202.933, 222.750 201.309 C 223.726 199.989, 224 181.687, 224 117.809 C 224 37.333, 223.967 35.967, 222 34 C 220.900 32.900, 219.438 32.017, 218.750 32.039 C 218.063 32.060, 204.571 37.185, 188.768 43.427 M 96 116.668 L 96 180.502 127.145 191.501 C 144.275 197.550, 158.675 202.650, 159.145 202.833 C 159.615 203.017, 160 174.412, 160 139.268 L 160 75.369 128.854 64.434 C 111.724 58.420, 97.324 53.350, 96.854 53.167 C 96.384 52.983, 96 81.559, 96 116.668" stroke="none" fill="black" fill-rule="evenodd"/>
</svg>